<svg width="60" height="80" viewBox="0 0 60 80" fill="none" xmlns="http://www.w3.org/2000/svg">
<path d="M0 12.8069C0 9.69745 0 8.1427 0.893863 7.04107C1.78773 5.93943 3.30912 5.61913 6.35192 4.97854L28.3519 0.346965C29.173 0.174109 29.5835 0.0876817 30 0.0876817C30.4165 0.0876817 30.827 0.174109 31.6481 0.346965L53.6481 4.97854C56.6909 5.61913 58.2123 5.93943 59.1061 7.04107C60 8.1427 60 9.69745 60 12.8069V62.0566C60 64.6319 60 65.9196 59.3323 66.9251C58.6647 67.9307 57.4779 68.4303 55.1045 69.4297L33.1045 78.6929C31.5733 79.3375 30.8078 79.6599 30 79.6599C29.1922 79.6599 28.4267 79.3375 26.8955 78.6929L4.89554 69.4297C2.52207 68.4303 1.33533 67.9307 0.667665 66.9251C0 65.9196 0 64.6319 0 62.0566V12.8069Z" fill="#1C1C2C"/>
<path d="M3.5 12.0692C3.5 11.2835 3.50086 10.7392 3.55176 10.3211C3.60101 9.91653 3.69151 9.68862 3.83256 9.51379C3.97361 9.33896 4.17723 9.2023 4.56223 9.06861C4.96015 8.93043 5.49191 8.81449 6.25982 8.64833L29.2598 3.67173C29.7012 3.57622 29.8518 3.54628 30 3.54628C30.1482 3.54628 30.2988 3.57622 30.7402 3.67173L53.7402 8.64833C54.5081 8.81449 55.0399 8.93043 55.4378 9.06861C55.8228 9.2023 56.0264 9.33896 56.1674 9.51379C56.3085 9.68862 56.399 9.91653 56.4482 10.3211C56.4991 10.7392 56.5 11.2835 56.5 12.0692V62.6883C56.5 63.3363 56.4993 63.7829 56.4618 64.1311C56.4256 64.4673 56.3588 64.6656 56.2537 64.8256C56.1486 64.9856 55.9932 65.1256 55.6991 65.2924C55.3944 65.4651 54.9848 65.6431 54.39 65.9004L31.39 75.8536C30.5678 76.2095 30.2865 76.3208 30 76.3208C29.7135 76.3208 29.4322 76.2095 28.61 75.8536L5.60996 65.9004C5.01521 65.6431 4.60562 65.4651 4.30094 65.2924C4.00679 65.1256 3.85139 64.9856 3.74629 64.8256C3.64118 64.6656 3.57438 64.4673 3.53817 64.1312C3.50067 63.7829 3.5 63.3363 3.5 62.6883V12.0692Z" stroke="white" stroke-opacity="0.08"/>
<g opacity="0.2">
<path d="M29.9998 32.1075V43.8927" stroke="#F6F6F9" stroke-width="1.5" stroke-linecap="round" stroke-linejoin="round"/>
<path d="M24.1072 38.0001H35.8923" stroke="#F6F6F9" stroke-width="1.5" stroke-linecap="round" stroke-linejoin="round"/>
</g>
</svg>
